HIERARCHY
ROOT Hips
{
	OFFSET 0.00000 0.00000 0.00000
	CHANNELS 6 Xposition Yposition Zposition Zrotation Yrotation Xrotation 
	JOINT LHipJoint
	{
		OFFSET 0 0 0
		CHANNELS 3 Zrotation Yrotation Xrotation
		JOINT LeftHip
		{
			OFFSET 1.37959 -1.78713 0.86582
			CHANNELS 3 Zrotation Yrotation Xrotation
			JOINT LeftKnee
			{
				OFFSET 2.54611 -6.99539 0.00000
				CHANNELS 3 Zrotation Yrotation Xrotation
				JOINT LeftAnkle
				{
					OFFSET 2.59951 -7.14211 0.00000
					CHANNELS 3 Zrotation Yrotation Xrotation
					JOINT LeftToe
					{
						OFFSET 0.18493 -0.50810 1.96120
						CHANNELS 3 Zrotation Yrotation Xrotation
						End Site
						{
							OFFSET 0.00000 -0.00000 1.02054
						}
					}
				}
			}
		}
	}
	JOINT RHipJoint
	{
		OFFSET 0 0 0
		CHANNELS 3 Zrotation Yrotation Xrotation
		JOINT RightHip
		{
			OFFSET -1.33564 -1.78713 0.86582
			CHANNELS 3 Zrotation Yrotation Xrotation
			JOINT RightKnee
			{
				OFFSET -2.52705 -6.94302 0.00000
				CHANNELS 3 Zrotation Yrotation Xrotation
				JOINT RightAnkle
				{
					OFFSET -2.55964 -7.03257 0.00000
					CHANNELS 3 Zrotation Yrotation Xrotation
					JOINT RightToe
					{
						OFFSET -0.25804 -0.70896 2.12109
						CHANNELS 3 Zrotation Yrotation Xrotation
						End Site
						{
							OFFSET -0.00000 -0.00000 1.11821
						}
					}
				}
			}
		}
	}
	JOINT lowerback
	{
		OFFSET 0 0 0
		CHANNELS 3 Zrotation Yrotation Xrotation
		JOINT Chest
		{
			OFFSET -0.02031 2.24248 -0.18900
			CHANNELS 3 Zrotation Yrotation Xrotation
			JOINT Chest2
			{
				OFFSET 0.08342 2.24689 -0.03799
				CHANNELS 3 Zrotation Yrotation Xrotation
				JOINT lowerneck
				{
					OFFSET 0 0 0
					CHANNELS 3 Zrotation Yrotation Xrotation
					JOINT Neck
					{
						OFFSET -0.11607 1.55844 0.24628
						CHANNELS 3 Zrotation Yrotation Xrotation
						JOINT Head
						{
							OFFSET 0.06877 1.60174 -0.17013
							CHANNELS 3 Zrotation Yrotation Xrotation
							End Site
							{
								OFFSET 0.03358 1.61266 -0.08543
							}
						}
					}
				}
				JOINT LeftCollar
				{
					OFFSET 0 0 0
					CHANNELS 3 Zrotation Yrotation Xrotation
					JOINT LeftShoulder
					{
						OFFSET 3.47537 0.55866 -0.72348
CHANNELS 3 Zrotation Xrotation Yrotation
						JOINT LeftElbow
						{
OFFSET 0 -5.381540 0.000000
CHANNELS 3 Zrotation Xrotation Yrotation
							JOINT LeftWrist
							{
OFFSET 0 -3.333120 0.000000
CHANNELS 3 Zrotation Xrotation Yrotation
								JOINT lhand
								{
									OFFSET 0 0 0
CHANNELS 3 Zrotation Xrotation Yrotation
									JOINT LFingers
									{
OFFSET 0 -0.710790 0.000000
CHANNELS 3 Zrotation Xrotation Yrotation
										End Site
										{
OFFSET 0 -0.573060 0.000000
										}
									}
								}
								JOINT LThumb
								{
OFFSET 0 0.000000 0.000000
CHANNELS 3 Zrotation Xrotation Yrotation
									End Site
									{
OFFSET 0 -0.581810 0.581810
									}
								}
							}
						}
					}
				}
				JOINT RightCollar
				{
					OFFSET 0 0 0
					CHANNELS 3 Zrotation Yrotation Xrotation
					JOINT RightShoulder
					{
						OFFSET -3.27844 0.90739 -0.35708
CHANNELS 3 Zrotation Xrotation Yrotation
						JOINT RightElbow
						{
OFFSET 0 -5.169540 0.000000
CHANNELS 3 Zrotation Xrotation Yrotation
							JOINT RightWrist
							{
OFFSET 0 -3.382870 0.000000
CHANNELS 3 Zrotation Xrotation Yrotation
								JOINT rhand
								{
									OFFSET 0 0 0
CHANNELS 3 Zrotation Xrotation Yrotation
									JOINT RFingers
									{
OFFSET 0 -0.817970 0.000000
CHANNELS 3 Zrotation Xrotation Yrotation
										End Site
										{
OFFSET 0 -0.659470 0.000000
										}
									}
								}
								JOINT RThumb
								{
OFFSET 0 0.000000 0.000000
CHANNELS 3 Zrotation Xrotation Yrotation
									End Site
									{
OFFSET 0 -0.669530 0.669530
									}
								}
							}
						}
					}
				}
			}
		}
	}
}
MOTION
Frames: 5
Frame Time: 0.008333333333333333
12.802794 17.563416 2.673264 -7.931342 -3.396106 3.303027 0.000000 0.000000 0.000000 -5.405445 -11.153970 -35.107893 1.839984 8.524445 24.318725 0.776684 -2.885648 -15.923561 0.906143 -6.063021 -16.968456 0.000000 0.000000 0.000000 31.876652 -3.694007 16.582168 0.000000 0.000000 0.000000 -0.380795 1.914397 -11.149269 -0.012074 0.584176 -1.605783 6.341861 4.527797 1.003338 1.830413 6.019009 1.813944 -1.583611 3.083461 1.766459 -11.402364 -4.764799 -14.073377 7.176931 -5.392997 16.998492 3.663233 -2.619367 8.095802 0.000000 0.000000 0.000000 2.213988 13.087424 -3.906704 14.081797 -22.851403 2.859895 -7.652150 9.780321 -36.498632 0.000000 0.000000 0.000000 -7.125000 0.000000 0.000000 -47.412803 59.915060 19.875134 0.000000 0.000000 0.000000 -25.978259 15.094717 66.303747 -40.081675 -48.118168 -18.499994 -13.846519 -26.064825 -19.696443 0.000000 0.000000 0.000000 7.125000 0.000000 0.000000 9.344867 9.952565 7.694950
12.806181 17.558849 2.737591 -7.693027 -3.597919 3.319280 0.000000 0.000000 0.000000 -5.707935 -11.009709 -35.124679 1.832752 8.508534 24.269776 0.781251 -2.964744 -15.959683 0.961830 -6.239864 -17.483569 0.000000 0.000000 0.000000 31.582155 -3.585222 16.853103 0.000000 0.000000 0.000000 -0.380985 1.840592 -11.165408 -0.028822 0.971928 -2.672549 6.024983 4.535790 1.025415 1.765439 6.031228 1.835031 -1.478632 3.085783 1.749978 -11.352691 -4.697998 -14.161532 7.137992 -5.297191 17.075075 3.653298 -2.573500 8.124807 0.000000 0.000000 0.000000 2.175163 13.063673 -3.611713 13.996992 -22.730209 2.827084 -7.601449 9.787363 -36.730096 0.000000 0.000000 0.000000 -7.125000 0.000000 0.000000 -47.645409 60.090380 20.204801 0.000000 0.000000 0.000000 -26.030178 14.950952 66.499241 -40.038625 -48.092703 -18.467983 -13.812757 -26.095276 -19.696329 0.000000 0.000000 0.000000 7.125000 0.000000 0.000000 9.366601 9.956295 7.712649
12.809569 17.554281 2.801918 -7.454712 -3.799731 3.335533 0.000000 0.000000 0.000000 -6.010425 -10.865449 -35.141465 1.825520 8.492624 24.220826 0.785819 -3.043840 -15.995806 1.017517 -6.416707 -17.998681 0.000000 0.000000 0.000000 31.287658 -3.476437 17.124039 0.000000 0.000000 0.000000 -0.381176 1.766787 -11.181547 -0.045570 1.359681 -3.739315 5.708105 4.543783 1.047492 1.700464 6.043446 1.856118 -1.373653 3.088105 1.733496 -11.303018 -4.631197 -14.249687 7.099053 -5.201386 17.151659 3.643364 -2.527634 8.153811 0.000000 0.000000 0.000000 2.136338 13.039921 -3.316721 13.912187 -22.609015 2.794273 -7.550749 9.794404 -36.961559 0.000000 0.000000 0.000000 -7.125000 0.000000 0.000000 -47.878014 60.265701 20.534469 0.000000 0.000000 0.000000 -26.082096 14.807186 66.694735 -39.995576 -48.067239 -18.435972 -13.778994 -26.125727 -19.696215 0.000000 0.000000 0.000000 7.125000 0.000000 0.000000 9.388336 9.960026 7.730349
12.813920 17.547056 2.868438 -7.445131 -3.977623 3.395572 0.000000 0.000000 0.000000 -6.071292 -10.718464 -35.153102 1.826892 8.495683 24.230181 0.782114 -3.086757 -15.950002 1.037988 -6.479532 -18.182404 0.000000 0.000000 0.000000 31.228041 -3.362867 17.366536 0.000000 0.000000 0.000000 -0.379041 1.714112 -11.159315 -0.062716 1.593914 -4.385191 5.666172 4.587291 1.067011 1.678878 6.104999 1.812688 -1.375848 3.116539 1.679740 -11.239724 -4.594461 -14.236050 7.068851 -5.160895 17.159274 3.627881 -2.507548 8.147135 0.000000 0.000000 0.000000 2.161233 13.138227 -3.217606 13.892496 -22.580843 2.786678 -7.797419 9.632844 -37.276278 0.000000 0.000000 0.000000 -7.125000 0.000000 0.000000 -48.491112 60.422782 21.065528 0.000000 0.000000 0.000000 -26.066441 14.821391 66.788237 -39.965549 -48.049449 -18.413661 -13.872007 -26.167506 -19.758923 0.000000 0.000000 0.000000 7.125000 0.000000 0.000000 9.330304 9.886780 7.695026
12.818412 17.539443 2.935277 -7.468882 -4.152030 3.461993 0.000000 0.000000 0.000000 -6.096946 -10.571083 -35.163988 1.829519 8.501507 24.248033 0.777204 -3.124401 -15.892260 1.053328 -6.525741 -18.317834 0.000000 0.000000 0.000000 31.202653 -3.248601 17.604890 0.000000 0.000000 0.000000 -0.376566 1.664515 -11.131490 -0.079921 1.805775 -4.969731 5.664307 4.635974 1.086157 1.663615 6.173742 1.759856 -1.393662 3.148779 1.620551 -11.174445 -4.562107 -14.207578 7.039923 -5.128465 17.156838 3.611590 -2.491219 8.135259 0.000000 0.000000 0.000000 2.195414 13.254321 -3.147037 13.882295 -22.566226 2.782758 -8.087424 9.446714 -37.603128 0.000000 0.000000 0.000000 -7.125000 0.000000 0.000000 -49.159658 60.577205 21.625936 0.000000 0.000000 0.000000 -26.040939 14.858617 66.866876 -39.937420 -48.032777 -18.392764 -13.983495 -26.210937 -19.830787 0.000000 0.000000 0.000000 7.125000 0.000000 0.000000 9.260648 9.802318 7.651976
